<svg width="960" height="600" viewBox="0 0 960 600" fill="none" xmlns="http://www.w3.org/2000/svg">
  <rect width="960" height="600" rx="40" fill="#F9F8F6"/>
  <rect x="48" y="44" width="864" height="512" rx="28" fill="white" stroke="#E6E8EC" stroke-width="4"/>
  <rect x="48" y="44" width="176" height="512" rx="28" fill="#000000"/>
  <circle cx="88" cy="88" r="20" fill="#3859F9"/>
  <rect x="120" y="75" width="62" height="12" rx="6" fill="white"/>
  <rect x="80" y="140" width="104" height="18" rx="9" fill="#CBD810"/>
  <rect x="80" y="184" width="96" height="12" rx="6" fill="#777"/>
  <rect x="80" y="216" width="112" height="12" rx="6" fill="#777"/>
  <rect x="80" y="248" width="82" height="12" rx="6" fill="#777"/>
  <rect x="260" y="88" width="410" height="38" rx="19" fill="#000000"/>
  <rect x="260" y="158" width="392" height="118" rx="24" fill="#F9F8F6" stroke="#E6E8EC" stroke-width="3"/>
  <rect x="686" y="158" width="180" height="118" rx="24" fill="#CBD810"/>
  <rect x="260" y="316" width="184" height="156" rx="24" fill="white" stroke="#E6E8EC" stroke-width="3"/>
  <rect x="470" y="316" width="184" height="156" rx="24" fill="white" stroke="#E6E8EC" stroke-width="3"/>
  <rect x="682" y="316" width="184" height="156" rx="24" fill="white" stroke="#E6E8EC" stroke-width="3"/>
  <rect x="292" y="356" width="82" height="16" rx="8" fill="#3859F9"/>
  <rect x="502" y="356" width="98" height="16" rx="8" fill="#C1B0FF"/>
  <rect x="714" y="356" width="74" height="16" rx="8" fill="#CBD810"/>
  <rect x="292" y="400" width="118" height="12" rx="6" fill="#DAD4C8"/>
  <rect x="502" y="400" width="108" height="12" rx="6" fill="#DAD4C8"/>
  <rect x="714" y="400" width="116" height="12" rx="6" fill="#DAD4C8"/>
</svg>
